<svg width="40" height="40" viewBox="0 0 40 40" fill="none" xmlns="http://www.w3.org/2000/svg">
<path d="M0 20C0 8.95431 8.95431 0 20 0V0C31.0457 0 40 8.95431 40 20V20C40 31.0457 31.0457 40 20 40V40C8.95431 40 0 31.0457 0 20V20Z" fill="url(#paint0_linear_1653_53)"/>
<path d="M22.4664 10.4137C23.5836 10.6371 24.3098 11.7242 24.0863 12.8414L23.9875 13.3313C23.7598 14.4785 23.3387 15.5699 22.75 16.5625H28.9375C30.0762 16.5625 31 17.4863 31 18.625C31 19.4199 30.5488 20.1117 29.8871 20.4555C30.3555 20.8336 30.6562 21.4137 30.6562 22.0625C30.6562 23.068 29.9344 23.9059 28.9848 24.0863C29.1738 24.4 29.2812 24.7652 29.2812 25.1563C29.2812 26.0715 28.684 26.8492 27.859 27.1156C27.8891 27.2574 27.9062 27.4078 27.9062 27.5625C27.9062 28.7012 26.9824 29.625 25.8438 29.625H21.6543C20.8379 29.625 20.043 29.3844 19.3641 28.9332L17.7098 27.8289C16.5625 27.0641 15.875 25.775 15.875 24.3957V19.6176C15.875 18.3629 16.4465 17.1813 17.4219 16.3949L17.7398 16.1414C18.8785 15.2305 19.6563 13.95 19.9398 12.5234L20.0387 12.0336C20.2621 10.9164 21.3492 10.1902 22.4664 10.4137ZM10.375 17.25H13.125C13.8855 17.25 14.5 17.8645 14.5 18.625V28.25C14.5 29.0106 13.8855 29.625 13.125 29.625H10.375C9.61445 29.625 9 29.0106 9 28.25V18.625C9 17.8645 9.61445 17.25 10.375 17.25Z" fill="white"/>
<defs>
<linearGradient id="paint0_linear_1653_53" x1="20" y1="0" x2="20" y2="40" gradientUnits="userSpaceOnUse">
<stop stop-color="#1C9BE8"/>
<stop offset="1" stop-color="#0262C7"/>
</linearGradient>
</defs>
</svg>
